<?xml version="1.0" standalone="no"?>
<!DOCTYPE svg PUBLIC "-//W3C//DTD SVG 20010904//EN"
 "http://www.w3.org/TR/2001/REC-SVG-20010904/DTD/svg10.dtd">
<svg version="1.0" xmlns="http://www.w3.org/2000/svg"
 width="1080.000000pt" height="1350.000000pt" viewBox="0 0 1080.000000 1350.000000"
 preserveAspectRatio="xMidYMid meet">

<g transform="translate(0.000000,1350.000000) scale(0.100000,-0.100000)"
fill="#000000" stroke="none">
<path d="M4160 10545 c-180 -52 -311 -189 -349 -364 -59 -277 128 -543 409
-581 41 -5 88 -9 104 -7 28 2 37 -11 237 -327 l208 -329 -30 -44 c-17 -24 -42
-69 -57 -101 -25 -52 -27 -67 -27 -182 0 -124 0 -126 38 -205 l38 -80 -173
-320 -173 -320 -110 -6 c-156 -9 -249 -49 -345 -150 -140 -146 -170 -381 -72
-563 42 -78 126 -157 212 -200 219 -108 499 -31 629 172 54 86 73 163 69 282
-3 98 -6 110 -41 180 -20 41 -44 86 -53 100 -15 24 -11 33 152 333 l167 309
34 -7 c55 -10 189 -7 235 6 161 43 290 170 340 332 17 56 20 86 15 161 -6 112
-32 185 -95 269 -92 121 -230 187 -391 187 l-86 1 -203 324 -203 324 41 53
c69 91 85 144 85 288 0 124 0 126 -37 203 -63 131 -176 226 -313 262 -71 18
-193 18 -255 0z"/>
<path d="M5839 10536 c-284 -100 -412 -426 -271 -690 84 -158 286 -268 463
-252 179 16 330 118 404 271 134 279 -6 590 -304 679 -82 24 -211 21 -292 -8z"/>
<path d="M3314 9076 c-233 -73 -384 -309 -346 -538 25 -152 131 -297 264 -362
74 -36 190 -59 258 -52 358 40 556 404 389 717 -55 103 -165 194 -278 229 -74
23 -222 26 -287 6z"/>
<path d="M6660 9067 c-135 -46 -227 -127 -289 -257 -35 -74 -36 -77 -36 -200
0 -120 1 -128 32 -192 18 -38 44 -83 58 -102 l27 -35 -157 -304 -157 -304
-107 5 c-121 5 -190 -9 -277 -59 -69 -39 -155 -127 -188 -193 -156 -307 28
-658 369 -708 146 -21 285 26 402 135 161 151 197 408 82 593 l-20 34 166 325
166 325 52 -6 c31 -3 81 0 123 9 235 50 394 241 394 473 0 279 -208 485 -489
484 -62 0 -104 -7 -151 -23z"/>
<path d="M5172 5894 c-48 -24 -75 -69 -79 -128 -8 -100 55 -166 156 -166 66 0
111 23 141 72 39 64 18 167 -42 212 -38 27 -131 33 -176 10z"/>
<path d="M8194 5856 c-192 -37 -330 -168 -364 -346 -17 -87 -13 -595 5 -663
44 -168 155 -277 330 -322 68 -17 198 -20 276 -5 64 12 169 60 212 96 83 69
147 200 147 299 0 53 -5 55 -151 55 l-106 0 -5 -44 c-21 -187 -266 -263 -396
-122 -59 64 -64 102 -60 416 3 252 4 267 25 307 40 75 113 113 212 113 125 -1
221 -93 221 -214 l0 -29 122 7 c67 4 126 10 130 12 13 9 9 87 -8 145 -42 142
-151 244 -306 285 -80 21 -204 25 -284 10z"/>
<path d="M836 5834 c-11 -28 -7 -1274 4 -1295 10 -17 22 -19 123 -19 75 0 117
4 125 12 9 9 12 68 12 206 l0 194 63 79 c34 43 65 79 68 79 4 0 84 -126 179
-280 120 -195 179 -282 194 -286 12 -2 73 -3 136 -2 95 2 115 6 118 19 1 8
-97 176 -219 373 -121 196 -219 362 -216 369 2 7 97 131 211 275 113 145 206
270 206 278 0 11 -26 14 -139 14 l-138 0 -224 -279 c-123 -154 -227 -280 -231
-280 -4 -1 -9 124 -10 277 l-3 277 -126 3 c-109 2 -128 0 -133 -14z"/>
<path d="M3777 5843 c-4 -3 -7 -300 -7 -659 0 -585 2 -652 16 -658 20 -8 208
-8 228 0 14 5 16 53 16 435 0 236 4 429 8 429 5 0 54 -76 111 -170 l102 -170
74 0 73 0 104 170 c56 93 106 170 111 170 4 0 7 -193 7 -430 l0 -430 23 -5
c12 -3 69 -5 127 -3 l105 3 3 663 2 662 -124 0 c-102 0 -126 -3 -137 -16 -8
-9 -75 -114 -150 -233 -74 -119 -140 -216 -145 -215 -5 0 -74 105 -153 232
l-144 232 -122 0 c-67 0 -125 -3 -128 -7z"/>
<path d="M5556 5834 c-10 -25 -7 -177 4 -194 7 -12 42 -16 185 -18 l175 -3 2
-547 3 -547 105 -3 c58 -2 115 0 128 3 l22 5 0 545 0 545 163 0 c89 0 172 3
185 6 21 6 22 11 22 115 l0 109 -494 0 c-441 0 -495 -2 -500 -16z"/>
<path d="M6737 5843 c-4 -3 -7 -298 -7 -653 0 -535 2 -650 14 -659 9 -8 138
-10 457 -9 l444 3 0 110 0 110 -325 5 -325 5 0 160 0 160 209 3 c134 1 214 6
223 13 9 8 13 39 13 104 0 65 -4 96 -13 104 -9 7 -89 12 -223 13 l-209 3 -3
135 c-1 74 0 145 3 158 l5 22 326 0 325 0 -3 108 -3 107 -451 3 c-248 1 -454
-1 -457 -5z"/>
<path d="M9012 5188 l3 -663 105 -3 c58 -2 115 0 128 3 l22 5 0 275 0 275 223
-2 222 -3 5 -275 5 -275 116 -3 c90 -2 119 1 128 11 8 11 10 184 9 663 l-3
649 -127 3 -128 3 -2 -268 -3 -268 -222 -3 -223 -2 -2 267 -3 268 -128 3 -127
3 2 -663z"/>
<path d="M2258 5495 c-147 -37 -268 -149 -268 -249 0 -27 -4 -26 165 -47 83
-11 90 -10 100 7 33 59 105 91 178 80 88 -14 127 -58 127 -141 l0 -45 -109 0
c-342 0 -484 -91 -485 -310 -1 -188 127 -290 348 -277 98 5 137 18 204 66 l42
31 0 -33 c0 -52 12 -57 137 -57 101 0 113 2 123 19 13 26 13 630 0 702 -20
106 -101 191 -229 240 -73 28 -248 36 -333 14z m302 -620 c0 -58 -3 -68 -31
-100 -37 -42 -68 -60 -123 -69 -57 -11 -112 2 -146 34 -24 23 -30 36 -30 72 0
93 61 127 223 128 l107 0 0 -65z"/>
<path d="M3422 5497 c-19 -6 -55 -30 -82 -54 -26 -24 -50 -43 -53 -43 -3 0 -7
21 -9 48 l-3 47 -105 3 c-58 2 -115 0 -127 -3 l-23 -5 0 -480 0 -480 23 -5
c12 -3 69 -5 127 -3 l105 3 5 295 c6 336 7 343 91 390 37 21 56 25 127 24 45
0 82 0 82 0 0 1 9 48 20 106 11 58 20 113 20 123 0 39 -119 60 -198 34z"/>
<path d="M5133 5494 c-10 -5 -13 -111 -13 -485 l0 -479 23 -5 c12 -3 69 -5
127 -3 l105 3 0 485 0 485 -115 2 c-63 1 -121 -1 -127 -3z"/>
<path d="M6910 3847 c-98 -28 -161 -91 -195 -195 -13 -39 -16 -76 -13 -154 6
-152 50 -237 153 -291 32 -18 57 -22 130 -22 55 0 103 5 123 14 29 12 33 17
27 40 -9 35 -9 35 -46 22 -18 -6 -57 -11 -88 -11 -141 1 -221 98 -221 269 0
88 11 135 43 182 49 73 135 102 236 81 30 -7 56 -11 57 -9 1 1 5 16 8 33 6 27
4 32 -16 37 -56 14 -156 16 -198 4z"/>
<path d="M640 3521 l0 -331 40 0 40 0 -2 328 -3 327 -37 3 -38 3 0 -330z"/>
<path d="M1658 3753 c-3 -81 -6 -97 -18 -94 -8 2 -44 4 -80 4 -157 1 -240
-121 -210 -310 14 -88 35 -123 90 -150 72 -37 147 -28 202 24 29 28 27 29 43
-22 2 -8 15 -15 27 -15 l23 0 -3 317 c-1 175 -4 324 -7 331 -2 6 -18 12 -34
12 l-30 0 -3 -97z m-20 -169 c20 -14 22 -23 22 -125 0 -114 -11 -160 -46 -190
-50 -44 -139 -27 -171 33 -12 24 -18 55 -18 113 0 94 16 140 59 166 39 24 122
25 154 3z"/>
<path d="M3702 3838 c-22 -22 -14 -67 13 -80 50 -22 97 38 59 76 -18 19 -55
21 -72 4z"/>
<path d="M4557 3844 c-4 -4 -7 -20 -7 -36 l0 -28 105 0 105 0 0 -295 0 -295
35 0 35 0 2 293 3 292 103 3 103 3 -3 32 -3 32 -236 3 c-129 1 -238 -1 -242
-4z"/>
<path d="M5987 3844 c-4 -4 -7 -153 -7 -331 l0 -323 40 0 40 0 0 171 0 172 36
33 c29 28 43 34 79 34 97 0 105 -18 105 -240 l0 -170 40 0 40 0 0 154 c0 185
-11 250 -47 288 -46 48 -148 50 -217 3 l-35 -24 -3 117 -3 117 -30 3 c-17 2
-34 0 -38 -4z"/>
<path d="M1025 3658 c-16 -6 -42 -22 -57 -36 -29 -27 -27 -28 -43 23 -2 8 -16
15 -30 15 l-25 0 0 -235 0 -235 40 0 40 0 0 171 0 171 34 34 c29 29 41 34 81
34 95 0 105 -23 105 -246 l0 -164 41 0 41 0 -3 188 c-4 166 -6 191 -24 222
-36 61 -120 86 -200 58z"/>
<path d="M1965 3658 c-82 -29 -128 -112 -128 -234 0 -147 57 -227 172 -241
103 -12 184 35 216 126 20 56 19 175 -1 234 -34 99 -153 152 -259 115z m154
-88 c36 -36 56 -120 46 -189 -14 -90 -52 -134 -118 -135 -81 -2 -126 51 -134
159 -10 125 35 195 127 195 41 0 53 -5 79 -30z"/>
<path d="M2490 3654 c-19 -8 -45 -24 -56 -35 l-22 -21 -7 31 c-5 24 -12 31
-31 31 l-24 0 0 -235 0 -235 35 0 35 0 0 161 c0 144 2 165 20 194 25 40 64 57
120 53 33 -2 48 -9 64 -31 19 -26 21 -44 24 -203 l4 -174 34 0 34 0 0 183 c0
170 -2 186 -22 227 -17 34 -32 48 -58 57 -48 16 -108 15 -150 -3z"/>
<path d="M2947 3656 c-49 -18 -74 -41 -100 -91 -25 -48 -34 -171 -18 -231 35
-128 146 -181 290 -138 57 16 69 31 51 63 -10 20 -12 21 -43 4 -41 -21 -123
-22 -163 0 -37 19 -64 71 -64 121 l0 36 150 0 150 0 0 63 c0 79 -27 140 -71
162 -44 23 -135 29 -182 11z m153 -81 c15 -16 23 -37 24 -62 l1 -38 -114 -3
-114 -3 6 38 c10 59 54 93 120 93 44 0 58 -4 77 -25z"/>
<path d="M3354 3651 c-50 -23 -69 -62 -61 -129 6 -56 38 -88 116 -116 74 -26
101 -51 101 -90 0 -62 -59 -86 -153 -61 -32 8 -60 15 -62 15 -1 0 -8 -13 -13
-30 -11 -29 -10 -30 40 -45 148 -44 263 10 263 124 0 68 -23 97 -113 138 -43
19 -85 42 -94 50 -23 21 -23 56 0 76 21 20 105 23 148 7 31 -12 46 1 42 35 -6
41 -143 58 -214 26z"/>
<path d="M4038 3659 c-63 -7 -118 -26 -118 -41 0 -5 4 -18 10 -28 9 -17 13
-17 56 -4 26 8 69 14 96 14 65 0 88 -23 88 -89 l0 -48 -80 -6 c-83 -7 -154
-31 -179 -61 -8 -9 -16 -38 -19 -65 -8 -91 46 -145 144 -144 52 0 84 12 120
45 22 19 22 19 32 -11 9 -24 17 -31 38 -31 22 0 25 3 20 23 -3 12 -6 102 -6
199 l0 178 -28 31 c-33 37 -84 48 -174 38z m132 -301 c-1 -66 -46 -108 -115
-108 -48 0 -80 20 -89 55 -15 58 39 94 142 95 l62 0 0 -42z"/>
<path d="M5216 3656 c-85 -32 -126 -106 -126 -230 0 -93 14 -139 55 -185 51
-57 133 -75 228 -50 64 16 80 31 66 62 -12 26 -12 26 -43 10 -40 -22 -122 -21
-163 0 -37 20 -58 54 -68 114 l-7 42 154 3 153 3 -1 73 c0 77 -13 106 -66 145
-33 25 -130 32 -182 13z m141 -71 c24 -17 48 -78 39 -101 -5 -12 -26 -14 -118
-12 -107 3 -113 4 -110 23 6 42 26 76 51 90 34 19 111 19 138 0z"/>
<path d="M5665 3651 c-80 -37 -115 -105 -115 -225 0 -130 35 -201 115 -231 83
-32 230 -2 218 45 -8 29 -14 31 -63 14 -118 -41 -196 32 -194 181 0 76 18 123
56 149 25 18 112 21 153 6 23 -9 27 -7 35 16 13 33 7 41 -38 54 -56 15 -122
12 -167 -9z"/>
<path d="M7337 3656 c-80 -30 -118 -93 -125 -206 -7 -127 28 -207 108 -247 88
-45 205 -20 254 54 75 114 51 316 -45 380 -47 31 -136 40 -192 19z m152 -82
c81 -68 65 -282 -23 -319 -45 -19 -60 -19 -102 1 -49 23 -74 82 -74 172 0 123
35 172 121 172 36 0 55 -6 78 -26z"/>
<path d="M7870 3659 c-14 -6 -37 -22 -52 -36 -29 -28 -27 -29 -43 22 -2 8 -16
15 -30 15 l-25 0 0 -235 0 -235 40 0 40 0 0 174 0 174 31 31 c24 25 39 31 73
31 84 0 95 -31 96 -257 l0 -153 35 0 35 0 0 161 c0 164 4 183 43 227 31 34
108 32 136 -4 19 -25 21 -40 21 -205 l0 -179 41 0 42 0 -5 188 c-5 214 -16
254 -74 278 -64 27 -147 11 -194 -36 l-22 -22 -22 25 c-11 14 -31 30 -43 36
-26 13 -89 13 -123 0z"/>
<path d="M8610 3659 c-14 -6 -37 -22 -52 -35 l-26 -26 -7 31 c-5 24 -12 31
-31 31 l-24 0 0 -330 0 -330 35 0 35 0 0 100 0 100 26 -10 c73 -28 176 0 231
63 41 46 55 99 54 200 -1 106 -27 162 -91 195 -47 23 -107 28 -150 11z m123
-83 c67 -62 62 -234 -9 -296 -41 -36 -87 -45 -139 -28 l-40 13 -3 120 c-3 130
5 163 46 195 37 29 111 27 145 -4z"/>
<path d="M9078 3659 c-32 -3 -71 -12 -88 -19 -27 -11 -30 -17 -25 -39 4 -14 8
-27 9 -28 1 -1 24 4 51 12 118 36 185 8 185 -78 l0 -44 -86 -7 c-145 -11 -194
-46 -194 -142 0 -65 31 -108 92 -125 52 -13 127 3 163 37 14 13 28 24 30 24 2
0 6 -13 10 -30 5 -24 12 -30 33 -30 l27 0 -3 187 c-3 189 -9 228 -41 257 -24
22 -95 33 -163 25z m132 -299 c0 -60 -41 -101 -107 -107 -45 -5 -55 -2 -77 20
-32 32 -33 67 -3 94 30 28 42 31 120 32 l67 1 0 -40z"/>
<path d="M9567 3660 c-16 -5 -43 -20 -61 -34 l-34 -25 -6 29 c-4 24 -11 30
-31 30 l-25 0 0 -235 0 -235 34 0 35 0 3 171 3 171 37 34 c32 29 45 34 86 34
39 0 53 -5 73 -26 23 -25 24 -31 27 -205 l3 -179 35 0 34 0 0 188 c0 158 -3
192 -18 222 -29 59 -112 85 -195 60z"/>
<path d="M3700 3425 l0 -235 35 0 35 0 0 235 0 235 -35 0 -35 0 0 -235z"/>
<path d="M9855 3641 c3 -12 44 -114 91 -227 46 -114 84 -218 84 -231 0 -32
-35 -99 -55 -107 -9 -3 -25 -6 -35 -6 -18 0 -36 -42 -25 -60 11 -18 72 -10
100 12 16 12 43 54 61 92 25 56 116 322 179 524 6 22 4 23 -30 20 l-37 -3 -48
-160 c-26 -88 -52 -176 -57 -195 -6 -22 -12 -29 -15 -20 -3 8 -35 96 -70 195
l-64 180 -43 3 c-39 3 -42 2 -36 -17z"/>
</g>
</svg>
